<svg width="34" height="32" viewBox="0 0 34 32" fill="none" xmlns="http://www.w3.org/2000/svg">
<path fill-rule="evenodd" clip-rule="evenodd" d="M31.0001 14.5C31.0001 14.8 31.0001 15.6 30.6001 18.9C32.7001 19.9 33.8001 22.3 33.0001 24.7L32.2001 27.8C31.6001 30 29.6001 31.5 27.4001 31.5C27.0001 31.5 26.5001 31.4 26.1001 31.3L24.2001 30.8C23.6001 31.1 22.8001 31.2 22.1001 31C21.3001 30.8 20.7001 30.3 20.3001 29.6C19.9001 28.9 19.8001 28.1 20.0001 27.3L22.4001 18.6C22.9001 17 24.5001 16.1 26.1001 16.5C26.9001 16.7 27.6001 17.3 28.0001 18.1L28.7001 18.3C28.8501 16.85 28.9501 15.95 29.0126 15.3875L29.0126 15.3874L29.0126 15.3871C29.0751 14.8249 29.1001 14.6 29.1001 14.5C29.1001 12.2 28.6001 10 27.6001 8.2C26.6001 9 25.3001 9.8 24.0001 9.8C23.2001 9.8 22.4001 9.5 21.5001 8.8C20.2001 7.7 18.7001 7.1 17.1001 7.1C15.5001 7.1 14.0001 7.7 12.7001 8.8C10.4001 10.8 8.0001 9.2 6.6001 8.2C5.6001 10 5.0001 12.2 5.0001 14.5C5.0001 14.5529 5.00711 14.6409 5.01926 14.7935C5.05303 15.2176 5.12657 16.141 5.2001 18.2L5.9001 18C6.3001 17.2 7.0001 16.6 7.8001 16.4C9.4001 15.9 11.1001 16.9 11.5001 18.5L13.8001 27.2C14.0001 28 13.9001 28.8 13.5001 29.5C13.1001 30.2 12.5001 30.7 11.7001 30.9C11.0001 31.1 10.2001 31 9.6001 30.7L7.7001 31.2C7.3001 31.3 6.8001 31.4 6.4001 31.4C4.2001 31.4 2.2001 29.9 1.6001 27.7L0.800104 24.6C0.200104 22.2 1.3001 19.8 3.4001 18.8C3.0001 15.5 3.0001 14.8 3.0001 14.5C3.0001 6.2 9.0001 0 17.0001 0C25.0001 0 31.0001 6.2 31.0001 14.5ZM8.8001 18.4H8.5001C8.1001 18.5 7.9001 18.8 7.8001 19.2C7.8001 19.3 7.8001 19.4 7.7001 19.5L10.2001 28.8C10.3001 28.8 10.4001 28.8 10.5001 28.9C10.8001 29.1 11.1001 29.2 11.4001 29.1C11.7001 29 11.9001 28.8 12.0001 28.6C12.013 28.5612 12.0259 28.5242 12.0384 28.4883C12.1226 28.2467 12.1872 28.0612 12.1001 27.8L9.8001 19.1C9.6001 18.7 9.2001 18.4 8.8001 18.4ZM6.7001 19.9L9.1001 28.8L7.2001 29.3C5.6001 29.7 4.0001 28.8 3.5001 27.2L2.7001 24.1C2.3001 22.5 3.2001 20.9 4.8001 20.4L6.7001 19.9ZM17.0001 5.1C19.0001 5.1 21.1001 5.9 22.7001 7.3C23.7001 8.2 24.5001 7.9 26.4001 6.5C24.2001 3.7 20.9001 2 17.0001 2C13.1001 2 9.8001 3.7 7.6001 6.5C9.4001 7.7 10.4001 8.1 11.3001 7.3C12.9001 5.9 14.9001 5.1 17.0001 5.1ZM22.7001 29C22.4001 28.9 22.2001 28.8 22.1001 28.5C22.0872 28.4612 22.0743 28.4242 22.0618 28.3883C21.9776 28.1467 21.913 27.9612 22.0001 27.7L24.3001 19C24.4001 18.5 25.0001 18.1 25.5001 18.3C25.9001 18.4 26.1001 18.7 26.2001 19C26.2001 19.05 26.2251 19.1 26.2501 19.15C26.2751 19.2 26.3001 19.25 26.3001 19.3L23.8001 28.6C23.7001 28.6 23.6001 28.7 23.5001 28.8L23.5001 28.8C23.3001 29.1 23.0001 29.1 22.7001 29ZM30.4001 27.2L31.2001 24.1C31.7001 22.5 30.7001 20.9 29.1001 20.4L27.2001 19.9L24.8001 28.8L26.7001 29.3C27.5001 29.5 28.3001 29.4 29.0001 29C29.7001 28.6 30.2001 28 30.4001 27.2Z" fill="#48CCFD"/>
</svg>
