<svg width="34" height="27" viewBox="0 0 34 27" fill="none" xmlns="http://www.w3.org/2000/svg">
<path fill-rule="evenodd" clip-rule="evenodd" d="M32.5 4.4V4C32.5 2.3 31.2 1 29.5 1C27.8 1 26.5 2.3 26.5 4H23.7L23.3 2.8C22.7 1.1 21 0 19.2 0H14.7C12.9 0 11.3 1.1 10.6 2.8L10.2 4H3C1.3 4 0 5.3 0 7V24C0 25.7 1.3 27 3 27H31C32.7 27 34 25.7 34 24V7C34 5.9 33.4 4.9 32.5 4.4ZM28.5 4C28.5 3.4 28.9 3 29.5 3C30.1 3 30.5 3.4 30.5 4V5H28.5V4ZM19.2 2H14.7C13.7 2 12.8 2.6 12.5 3.5L12 5H22L21.4 3.5C21 2.6 20.2 2 19.2 2ZM32 24C32 24.6 31.6 25 31 25H3C2.4 25 2 24.6 2 24V7C2 6.4 2.4 6 3 6H10.5H10.9H23H23.5H26.5H27.5H31H31.1C31.1 6 31.2 6 31.2 6.1C31.6 6.2 31.9 6.6 31.9 7.1V24H32ZM9.9 15C9.9 11.1 13.1 7.9 17 7.9C20.9 7.9 24.1 11.1 24.1 15C24.1 18.9 20.9 22.1 17 22.1C13.1 22.1 9.9 18.9 9.9 15ZM17 21.1C13.7 21.1 10.9 18.4 10.9 15C10.9 11.6 13.6 8.9 17 8.9C20.4 8.9 23.1 11.6 23.1 15C23.1 18.4 20.3 21.1 17 21.1ZM14 15C14 13.3 15.3 12 17 12C18.7 12 20 13.3 20 15C20 16.7 18.7 18 17 18C15.3 18 14 16.7 14 15ZM17 17C15.9 17 15 16.1 15 15C15 13.9 15.9 13 17 13C18.1 13 19 13.9 19 15C19 16.1 18.1 17 17 17ZM28 22C28.6 22 29 21.6 29 21C29 20.4 28.6 20 28 20C27.4 20 27 20.4 27 21C27 21.6 27.4 22 28 22ZM7.5 8H5.5C4.7 8 4 8.7 4 9.5V10.5C4 11.3 4.7 12 5.5 12H7.5C8.3 12 9 11.3 9 10.5V9.5C9 8.7 8.3 8 7.5 8ZM7.5 11C7.8 11 8 10.8 8 10.5V9.5C8 9.2 7.8 9 7.5 9H5.5C5.2 9 5 9.2 5 9.5V10.5C5 10.8 5.2 11 5.5 11H7.5Z" fill="#48CCFD"/>
</svg>
